<svg xmlns="http://www.w3.org/2000/svg" width="119" height="119" viewBox="0 0 119 119" fill="none"><g id="astrology_oujqcpude6pv"><path id="Vector" d="M96.3175 27.1468C96.5683 26.8132 96.6995 26.405 96.6901 25.9877C96.6807 25.5705 96.5312 25.1686 96.2657 24.8466C96.0002 24.5247 95.6341 24.3014 95.2263 24.2127C94.8185 24.124 94.3927 24.1751 94.0175 24.3578L67.791 37.1874L61.3074 10.7137C61.2079 10.3099 60.9761 9.95115 60.6488 9.69467C60.3215 9.4382 59.9177 9.29883 59.5019 9.29883C59.0861 9.29883 58.6823 9.4382 58.355 9.69467C58.0277 9.95115 57.7959 10.3099 57.6964 10.7137L51.2147 37.1874L24.99 24.3578C24.6147 24.1734 24.1881 24.121 23.7793 24.209C23.3704 24.297 23.0032 24.5202 22.7369 24.8426C22.4705 25.165 22.3207 25.5678 22.3115 25.9859C22.3023 26.404 22.4344 26.813 22.6863 27.1468L40.3968 50.5749L10.3419 65.264C9.96264 65.4477 9.65704 65.7547 9.47514 66.1348C9.29324 66.5149 9.24584 66.9455 9.3407 67.356C9.43556 67.7666 9.66706 68.1328 9.99726 68.3945C10.3275 68.6563 10.7368 68.7981 11.1581 68.7968H43.4722L35.3839 101.823C35.2822 102.239 35.3273 102.678 35.5115 103.064C35.6957 103.451 36.0077 103.762 36.3948 103.945C36.782 104.129 37.2205 104.172 37.6363 104.07C38.0521 103.967 38.4197 103.724 38.6769 103.381L59.5019 75.8383L80.3269 103.381C80.5001 103.612 80.7247 103.8 80.9829 103.929C81.241 104.058 81.5257 104.125 81.8144 104.125C82.0909 104.124 82.3636 104.06 82.6121 103.939C82.9985 103.755 83.3098 103.444 83.4933 103.058C83.6769 102.671 83.7216 102.233 83.6199 101.817L75.5334 68.7968H107.846C108.267 68.7981 108.676 68.6563 109.007 68.3945C109.337 68.1328 109.568 67.7666 109.663 67.356C109.758 66.9455 109.711 66.5149 109.529 66.1348C109.347 65.7547 109.041 65.4477 108.662 65.264L78.6051 50.5749L96.3175 27.1468ZM88.6532 31.1147L75.2006 48.9015L70.0445 46.3876L68.6946 40.8783L88.6532 31.1147ZM59.5019 18.9656L64.3716 38.8609L59.5019 41.2334L54.6341 38.8609L59.5019 18.9656ZM30.3543 31.1222L50.3091 40.8783L48.9611 46.3876L43.8032 48.9015L30.3543 31.1222ZM19.1944 65.0781L42.6857 53.5946L46.0921 58.0998L44.3833 65.0781H19.1944ZM41.135 93.9597L47.3007 68.7968H54.1804L57.174 72.7554L41.135 93.9597ZM56.5864 65.8218C56.4132 65.5909 56.1886 65.4035 55.9304 65.2744C55.6722 65.1453 55.3876 65.0781 55.0989 65.0781H48.2118L49.9131 58.1277C49.9793 57.8593 49.9847 57.5794 49.9291 57.3086C49.8734 57.0378 49.7581 56.7828 49.5914 56.5621L46.0884 51.9304L51.3746 49.3459C51.6196 49.2265 51.8354 49.0547 52.0067 48.8426C52.1779 48.6305 52.3005 48.3834 52.3656 48.1187L53.7285 42.5406L58.6856 44.9578C58.9402 45.0808 59.2192 45.1447 59.5019 45.1447C59.7846 45.1447 60.0636 45.0808 60.3182 44.9578L65.2753 42.5406L66.64 48.1187C66.705 48.3832 66.8272 48.6303 66.9982 48.8423C67.1691 49.0544 67.3845 49.2263 67.6292 49.3459L72.9154 51.9304L69.4142 56.5621C69.2473 56.7826 69.1316 57.0375 69.0756 57.3084C69.0196 57.5792 69.0248 57.8591 69.0907 58.1277L70.7939 65.0781H63.9012C63.6125 65.0781 63.3278 65.1453 63.0696 65.2744C62.8115 65.4035 62.5869 65.5909 62.4137 65.8218L59.5019 69.6726L56.5864 65.8218ZM77.8651 93.9597L61.8336 72.7629L64.8271 68.7968H71.7068L77.8651 93.9597ZM99.8094 65.0781H74.6223L72.9136 58.0998L76.3199 53.5946L99.8094 65.0781Z" fill="#FF5C16"></path><path id="Vector_2" d="M59.5 94.8281C58.029 94.8281 56.591 95.2643 55.368 96.0816C54.1449 96.8988 53.1916 98.0604 52.6286 99.4194C52.0657 100.778 51.9184 102.274 52.2054 103.717C52.4924 105.159 53.2007 106.485 54.2409 107.525C55.2811 108.565 56.6063 109.273 58.049 109.56C59.4918 109.847 60.9872 109.7 62.3462 109.137C63.7052 108.574 64.8668 107.621 65.6841 106.398C66.5013 105.175 66.9375 103.737 66.9375 102.266C66.9375 100.293 66.1539 98.4013 64.7591 97.0065C63.3643 95.6117 61.4726 94.8281 59.5 94.8281ZM59.5 105.984C58.7645 105.984 58.0455 105.766 57.434 105.358C56.8224 104.949 56.3458 104.368 56.0643 103.689C55.7829 103.009 55.7092 102.261 55.8527 101.54C55.9962 100.819 56.3504 100.156 56.8705 99.6361C57.3905 99.116 58.0531 98.7618 58.7745 98.6183C59.4959 98.4748 60.2436 98.5485 60.9231 98.8299C61.6026 99.1114 62.1834 99.5881 62.592 100.2C63.0007 100.811 63.2188 101.53 63.2188 102.266C63.2188 103.252 62.827 104.198 62.1296 104.895C61.4322 105.593 60.4863 105.984 59.5 105.984Z" fill="#FF5C16"></path><path id="Vector_3" d="M27.7041 73.5439C27.5323 73.2558 27.2886 73.0171 26.9969 72.8514C26.7052 72.6857 26.3754 72.5986 26.0399 72.5986C25.7044 72.5986 25.3747 72.6857 25.083 72.8514C24.7913 73.0171 24.5476 73.2558 24.3758 73.5439L18.7977 84.7002C18.6563 84.983 18.5895 85.2972 18.6034 85.6131C18.6173 85.929 18.7115 86.2361 18.8772 86.5055C19.0428 86.7748 19.2744 86.9974 19.5501 87.1523C19.8257 87.3072 20.1363 87.3893 20.4525 87.3907H31.6088C31.9257 87.3908 32.2375 87.3099 32.5144 87.1557C32.7913 87.0015 33.0242 86.779 33.191 86.5094C33.3577 86.2398 33.4528 85.9321 33.4671 85.6154C33.4814 85.2988 33.4146 84.9837 33.2729 84.7002L27.7041 73.5439ZM23.461 83.6719L26.0306 78.5326L28.6003 83.6719H23.461Z" fill="#FF5C16"></path><path id="Vector_4" d="M91.3868 41.7895C91.2204 42.0588 91.1256 42.3662 91.1113 42.6825C91.097 42.9988 91.1636 43.3135 91.305 43.5968L96.8831 54.753C97.0373 55.0624 97.2748 55.3227 97.5687 55.5047C97.8627 55.6866 98.2016 55.783 98.5473 55.783C98.893 55.783 99.2318 55.6866 99.5258 55.5047C99.8198 55.3227 100.057 55.0624 100.211 54.753L105.79 43.5968C105.931 43.3132 105.998 42.9982 105.984 42.6815C105.969 42.3648 105.874 42.0571 105.708 41.7875C105.541 41.518 105.308 41.2955 105.031 41.1412C104.754 40.987 104.442 40.9061 104.125 40.9063H92.9691C92.652 40.9063 92.3401 40.9875 92.0631 41.142C91.7861 41.2966 91.5533 41.5195 91.3868 41.7895ZM101.117 44.625L98.5473 49.7643L95.9776 44.625H101.117Z" fill="#FF5C16"></path><path id="Vector_5" d="M14.7975 53.3178C15.0585 53.4548 15.3485 53.5278 15.6433 53.5307C15.9382 53.5336 16.2295 53.4664 16.4932 53.3345L27.4895 47.8345L27.9562 51.1014L31.6378 50.5752L30.8048 44.7535C30.7631 44.4619 30.6528 44.1843 30.4828 43.9437C30.3128 43.7031 30.0881 43.5064 29.8272 43.3696C29.5662 43.2329 29.2766 43.1601 28.982 43.1573C28.6874 43.1545 28.3964 43.2217 28.1329 43.3534L17.1365 48.8534L16.6698 45.5865L12.9883 46.1127L13.8213 51.9344C13.8629 52.2258 13.9731 52.5031 14.1428 52.7436C14.3125 52.9841 14.5369 53.1809 14.7975 53.3178Z" fill="#FF5C16"></path><path id="Vector_6" d="M100.312 73.7871L96.7791 74.9622L97.8277 78.0934H85.5317C85.2371 78.0934 84.9467 78.1633 84.6844 78.2975C84.4221 78.4317 84.1954 78.6263 84.0231 78.8652C83.8508 79.1042 83.7377 79.3807 83.6932 79.6719C83.6487 79.9632 83.674 80.2608 83.7671 80.5404L85.6265 86.1185L89.1593 84.9434L88.1107 81.8122H100.407C100.701 81.8122 100.992 81.7423 101.254 81.6081C101.516 81.4739 101.743 81.2793 101.915 81.0404C102.088 80.8014 102.201 80.5249 102.245 80.2337C102.29 79.9424 102.264 79.6448 102.171 79.3652L100.312 73.7871Z" fill="#FF5C16"></path><path id="Vector_7" d="M66.9375 55.7813C66.9375 54.3103 66.5013 52.8723 65.6841 51.6492C64.8668 50.4261 63.7052 49.4728 62.3462 48.9099C60.9872 48.347 59.4918 48.1997 58.049 48.4867C56.6063 48.7736 55.2811 49.482 54.2409 50.5221C53.2007 51.5623 52.4924 52.8875 52.2054 54.3303C51.9184 55.773 52.0657 57.2684 52.6286 58.6275C53.1916 59.9865 54.1449 61.1481 55.368 61.9653C56.591 62.7825 58.029 63.2188 59.5 63.2188C61.4726 63.2188 63.3643 62.4352 64.7591 61.0404C66.1539 59.6456 66.9375 57.7538 66.9375 55.7813ZM59.5 59.5C58.7645 59.5 58.0455 59.2819 57.434 58.8733C56.8224 58.4647 56.3458 57.8839 56.0643 57.2044C55.7829 56.5248 55.7092 55.7771 55.8527 55.0558C55.9962 54.3344 56.3504 53.6718 56.8705 53.1517C57.3905 52.6316 58.0531 52.2774 58.7745 52.134C59.4959 51.9905 60.2436 52.0641 60.9231 52.3456C61.6026 52.627 62.1834 53.1037 62.592 53.7152C63.0007 54.3268 63.2188 55.0458 63.2188 55.7813C63.2188 56.7675 62.827 57.7134 62.1296 58.4108C61.4322 59.1082 60.4863 59.5 59.5 59.5Z" fill="#FF5C16"></path><path id="Vector_8" d="M41.4506 27.3454C41.7993 27.694 42.2722 27.8898 42.7652 27.8898C43.2583 27.8898 43.7311 27.694 44.0798 27.3454L49.6579 21.7673C50.0065 21.4186 50.2023 20.9458 50.2023 20.4527C50.2023 19.9597 50.0065 19.4868 49.6579 19.1382L44.0798 13.56C43.7311 13.2114 43.2583 13.0156 42.7652 13.0156C42.2722 13.0156 41.7993 13.2114 41.4506 13.56L35.8725 19.1382C35.5239 19.4868 35.3281 19.9597 35.3281 20.4527C35.3281 20.9458 35.5239 21.4186 35.8725 21.7673L41.4506 27.3454ZM42.7652 17.5038L45.7142 20.4527L42.7652 23.4017L39.8163 20.4527L42.7652 17.5038Z" fill="#FF5C16"></path><path id="Vector_9" d="M78.0938 27.8906C78.5869 27.8906 79.0598 27.6947 79.4085 27.346C79.7572 26.9973 79.9531 26.5244 79.9531 26.0312V14.875C79.9531 14.3819 79.7572 13.9089 79.4085 13.5602C79.0598 13.2115 78.5869 13.0156 78.0938 13.0156C76.1212 13.0156 74.2294 13.7992 72.8346 15.194C71.4398 16.5888 70.6562 18.4806 70.6562 20.4531C70.6562 22.4257 71.4398 24.3174 72.8346 25.7122C74.2294 27.107 76.1212 27.8906 78.0938 27.8906ZM76.2344 17.2345V23.6717C75.67 23.3451 75.2014 22.8757 74.8756 22.3108C74.5499 21.7459 74.3784 21.1052 74.3784 20.4531C74.3784 19.801 74.5499 19.1604 74.8756 18.5954C75.2014 18.0305 75.67 17.5612 76.2344 17.2345Z" fill="#FF5C16"></path><path id="Vector_10" d="M59.5 1.85938C48.0998 1.85937 36.9556 5.23994 27.4766 11.5736C17.9977 17.9072 10.6097 26.9094 6.24703 37.4419C1.88435 47.9743 0.742873 59.5639 2.96695 70.7451C5.19103 81.9263 10.6808 92.1969 18.7419 100.258C26.8031 108.319 37.0737 113.809 48.2549 116.033C59.4361 118.257 71.0257 117.116 81.5581 112.753C92.0906 108.39 101.093 101.002 107.426 91.5234C113.76 82.0444 117.141 70.9002 117.141 59.5C117.123 44.218 111.045 29.5669 100.239 18.7609C89.4331 7.95496 74.782 1.8766 59.5 1.85938ZM59.5 113.422C48.8353 113.422 38.41 110.259 29.5426 104.334C20.6752 98.4094 13.7639 89.9879 9.68271 80.135C5.60149 70.2821 4.53366 59.4402 6.61424 48.9804C8.69483 38.5205 13.8304 28.9126 21.3715 21.3715C28.9126 13.8304 38.5206 8.69481 48.9804 6.61422C59.4402 4.53363 70.2821 5.60146 80.135 9.68268C89.988 13.7639 98.4094 20.6752 104.334 29.5426C110.259 38.41 113.422 48.8353 113.422 59.5C113.406 73.796 107.719 87.5018 97.6106 97.6106C87.5018 107.719 73.796 113.406 59.5 113.422Z" fill="#FF5C16"></path></g></svg>