<svg xmlns="http://www.w3.org/2000/svg" width="120" height="120" viewBox="0 0 120 120" fill="none"><g id="horoscope_s1n597ynfty0 1" clip-path="url(#clip0_20_1011)"><g id="Group"><path id="Vector" d="M58.0001 120C53.9142 120 49.8311 119.587 45.8638 118.772C44.9127 118.576 44.3003 117.647 44.4958 116.696C44.691 115.745 45.6201 115.133 46.5714 115.328C50.3064 116.095 54.1516 116.485 58.0004 116.485C73.0879 116.485 87.2724 110.609 97.9408 99.9406C108.609 89.2722 114.485 75.0877 114.485 60.0001C114.485 52.13 112.898 44.5153 109.768 37.367C106.744 30.4611 102.43 24.3115 96.9459 19.0893C96.2428 18.4199 96.2156 17.3071 96.8852 16.604C97.5543 15.9006 98.6674 15.8739 99.3703 16.5431C105.195 22.0891 109.776 28.6207 112.988 35.957C116.314 43.5525 118 51.6418 118 60.0001C118 76.0268 111.759 91.0943 100.427 102.427C89.094 113.759 74.0266 120 58.0001 120ZM39.5054 117.003C39.3205 117.003 39.1325 116.973 38.9474 116.911C27.1181 112.953 16.9529 105.514 9.55035 95.3995C1.99426 85.0743 -2 72.8334 -2 59.9999C-2 43.9734 4.241 28.906 15.5736 17.5734C26.9062 6.24076 41.9734 0 58.0001 0C70.4664 0 82.4201 3.78754 92.5689 10.9532C93.362 11.5133 93.5509 12.61 92.991 13.4031C92.4311 14.1962 91.3342 14.3849 90.5411 13.8252C80.9888 7.08077 69.7361 3.51566 58.0001 3.51566C42.9126 3.51566 28.728 9.39103 18.0597 20.0594C7.39103 30.7278 1.51566 44.9123 1.51566 59.9999C1.51566 72.0818 5.27507 83.6047 12.3875 93.3232C19.3579 102.847 28.928 109.851 40.063 113.577C40.9836 113.885 41.4803 114.881 41.1721 115.802C40.926 116.538 40.2407 117.003 39.5054 117.003ZM57.3746 112.45C55.2954 112.45 53.2165 111.948 51.5965 110.943C50.7712 110.432 50.5169 109.348 51.0283 108.523C51.5397 107.698 52.623 107.443 53.4485 107.955C55.5769 109.274 59.1727 109.274 61.3006 107.955C61.9885 107.529 62.1102 106.943 61.9946 106.537C61.9166 106.264 61.692 105.937 61.0655 105.937C60.0948 105.937 59.3077 105.15 59.3077 104.179C59.3077 103.208 60.0948 102.421 61.0655 102.421C63.1386 102.421 64.8303 103.659 65.3757 105.574C65.9535 107.603 65.0603 109.761 63.1527 110.943C61.5324 111.948 59.4535 112.45 57.3746 112.45ZM77.5683 107.728C77.2702 107.728 76.9678 107.653 76.691 107.493C75.8503 107.008 75.562 105.932 76.0474 105.092C76.2961 104.661 76.5816 104.241 76.8996 103.834L73.668 98.2367C73.1568 98.3086 72.6503 98.3459 72.1535 98.3459C72.1532 98.3459 72.1532 98.3459 72.153 98.3459C71.1822 98.3459 70.3952 97.5588 70.3952 96.5881C70.3952 95.617 71.1822 94.8302 72.153 94.8302C72.7568 94.8302 73.391 94.7475 74.0334 94.5949C74.1037 94.5726 74.1747 94.5551 74.246 94.5419C76.2593 94.0172 78.3298 92.8216 79.7911 91.3406C79.8382 91.2853 79.8891 91.2323 79.9437 91.1824C80.397 90.7024 80.7853 90.1947 81.0872 89.672C81.5724 88.8311 82.6475 88.5426 83.4884 89.0285C84.3291 89.5136 84.6174 90.5887 84.132 91.4294C83.8833 91.8602 83.5979 92.2802 83.2798 92.6871L86.5117 98.2847C87.0224 98.2128 87.5289 98.1755 88.0255 98.1755H88.0267C88.9975 98.1757 89.7845 98.9625 89.7843 99.9336C89.7843 100.904 88.9972 101.691 88.0264 101.691C88.0262 101.691 88.0257 101.691 88.0255 101.691C84.797 101.691 80.7061 104.053 79.0922 106.849C78.7669 107.413 78.1758 107.728 77.5683 107.728ZM77.1579 97.2499L79.4988 101.305C80.576 100.489 81.7763 99.7962 83.0215 99.2712L80.6803 95.2162C79.6034 96.0319 78.4031 96.7249 77.1579 97.2499ZM35.4697 107.091C34.3013 107.091 33.1006 106.787 31.9962 106.149C30.4908 105.28 29.3794 103.921 28.8668 102.321C28.3345 100.66 28.5049 98.9433 29.3461 97.4862C30.4266 95.6145 32.2669 94.5626 33.7456 93.7176C34.6962 93.1743 35.6792 92.6125 35.9909 92.0723C36.2663 91.5954 36.1634 91.3863 36.1297 91.3178C35.9982 91.0509 35.5573 90.7399 34.9686 90.6616C34.0062 90.5339 33.3296 89.6503 33.4573 88.6877C33.585 87.7255 34.4691 87.0459 35.431 87.1766C37.1323 87.4026 38.6087 88.394 39.2835 89.7644C39.9067 91.0298 39.8185 92.4738 39.0355 93.8301C38.2487 95.193 36.8462 95.9946 35.4901 96.7699C34.2075 97.5028 32.996 98.1952 32.3907 99.244C32.0513 99.8318 31.9889 100.544 32.2146 101.248C32.46 102.014 33.0066 102.673 33.7538 103.105C35.2393 103.963 37.0449 103.626 37.779 102.355C38.3991 101.281 38.9227 99.4001 39.0723 98.7659C39.1998 98.2249 39.5755 97.7759 40.086 97.5556C40.5964 97.3353 41.1807 97.369 41.6621 97.647L42.8917 98.3567C43.7324 98.8418 44.0205 99.9169 43.5351 100.758C43.1891 101.357 42.5418 101.676 41.8963 101.633C41.6207 102.446 41.2578 103.361 40.8238 104.113C39.7147 106.033 37.6489 107.091 35.4697 107.091ZM54.9347 105.937C52.8616 105.937 51.1699 104.7 50.6243 102.785C50.0465 100.756 50.94 98.5981 52.8473 97.4156C56.0871 95.407 61.1633 95.407 64.4035 97.4156C65.2288 97.9273 65.4831 99.0108 64.9714 99.8358C64.46 100.661 63.3765 100.915 62.5513 100.404C60.4231 99.0846 56.8275 99.0846 54.6996 100.404C54.0117 100.83 53.8901 101.416 54.0056 101.822C54.0837 102.095 54.3082 102.422 54.9347 102.422C55.9055 102.422 56.6925 103.209 56.6925 104.18C56.6925 105.151 55.9057 105.937 54.9347 105.937ZM19.3295 92.2033C18.9111 92.2033 18.4963 92.0543 18.1672 91.7646C17.96 91.5822 16.1174 89.936 15.192 88.3331C13.692 85.735 14.3141 83.0021 15.2947 80.6396L11.5233 80.4059C10.5544 80.3459 9.81754 79.5118 9.87754 78.5429C9.93754 77.5737 10.7719 76.8378 11.7408 76.8973L16.9271 77.2187L19.2418 72.5663C19.6743 71.6972 20.7294 71.3426 21.5987 71.7755C22.4678 72.2079 22.822 73.2633 22.3895 74.1324L20.7365 77.4547L24.4401 77.6841C25.409 77.7441 26.1459 78.5783 26.0859 79.5472C26.0257 80.5161 25.1922 81.2495 24.2226 81.1927L19.0487 80.8724C17.8025 83.5227 17.409 85.142 18.2366 86.5752C18.5455 87.1101 19.1005 87.7457 19.5972 88.2609L26.9681 84.0055C27.8088 83.5204 28.8839 83.8079 29.3693 84.6489C29.8547 85.4896 29.5666 86.5647 28.7259 87.0501L20.2082 91.9675C19.9342 92.126 19.6311 92.2033 19.3295 92.2033ZM58.0001 91.8752C40.4239 91.8752 26.1248 77.5758 26.1248 59.9999C26.1248 59.0289 26.9118 58.2421 27.8826 58.2421C28.8534 58.2421 29.6405 59.0289 29.6405 59.9999C29.6405 75.6375 42.3625 88.3595 58.0001 88.3595C73.6378 88.3595 86.3598 75.6375 86.3598 59.9999C86.3598 44.3622 73.6378 31.6402 58.0001 31.6402C51.4962 31.6402 45.3787 33.7817 40.3096 37.833C35.3872 41.7667 31.8741 47.2873 30.4177 53.3773C30.192 54.3214 29.243 54.9038 28.2991 54.6781C27.3551 54.4524 26.7726 53.5039 26.9983 52.5598C28.6359 45.712 32.584 39.5069 38.1146 35.0865C43.7324 30.597 50.7944 28.1246 58.0001 28.1246C75.5763 28.1246 89.8754 42.4239 89.8754 59.9999C89.8754 77.5758 75.5761 91.8752 58.0001 91.8752ZM100.135 91.5696C99.8362 91.5696 99.5341 91.4936 99.2571 91.3338C97.6364 90.3979 96.5702 88.8651 96.1757 87.1719C94.5121 87.6768 92.6519 87.5202 91.0309 86.5841C87.9235 84.7902 86.855 80.8025 88.6489 77.6949C90.4429 74.5873 94.4303 73.5188 97.5382 75.3132C99.0433 76.1822 100.12 77.5854 100.57 79.2643C100.589 79.333 100.606 79.4019 100.622 79.4708C100.69 79.4504 100.758 79.4309 100.827 79.4124C102.505 78.9626 104.259 79.1933 105.765 80.0623C106.605 80.5477 106.893 81.6228 106.408 82.4635C105.922 83.3045 104.847 83.5918 104.007 83.1069C103.315 82.7073 102.508 82.6011 101.737 82.8083C100.965 83.015 100.32 83.51 99.9202 84.2022C99.0954 85.6307 99.5866 87.464 101.015 88.289C101.856 88.7744 102.144 89.8495 101.659 90.6902C101.333 91.2546 100.742 91.5696 100.135 91.5696ZM94.2895 77.9579C93.2547 77.9579 92.2471 78.4944 91.6935 79.453C90.8687 80.8817 91.36 82.7148 92.7885 83.5398C94.2168 84.3643 96.0503 83.8731 96.8754 82.4448C97.275 81.7527 97.3809 80.9464 97.1742 80.1746C96.9675 79.4026 96.4722 78.7576 95.7803 78.358C95.3104 78.0868 94.7967 77.9579 94.2895 77.9579ZM58.0001 84.8439C57.0293 84.8439 56.2423 84.0571 56.2423 83.0861V75.563C54.6593 75.3853 53.1469 74.971 51.7415 74.3557L47.9793 80.8721C47.4939 81.7128 46.4188 82.0002 45.5781 81.5155C44.7374 81.0301 44.4494 79.955 44.9348 79.1143L48.6996 72.5932C47.4459 71.6651 46.3352 70.5541 45.407 69.3004L38.886 73.0652C38.0455 73.5502 36.9701 73.2628 36.4848 72.4219C35.9994 71.5812 36.2874 70.5061 37.1281 70.0207L43.6445 66.2585C43.0293 64.8531 42.6149 63.3407 42.4372 61.7577H34.914C33.9432 61.7577 33.1561 60.9709 33.1561 59.9999C33.1561 59.0289 33.9432 58.2421 34.914 58.2421H42.4372C42.6149 56.6591 43.0293 55.1469 43.6445 53.7415L37.1281 49.9791C36.2874 49.4937 35.9994 48.4186 36.4848 47.5779C36.9701 46.7369 38.0452 46.4491 38.886 46.9345L45.407 50.6996C46.3352 49.4459 47.4463 48.3349 48.6998 47.4066L44.935 40.8857C44.4496 40.045 44.7376 38.9699 45.5784 38.4845C46.4188 37.9996 47.4942 38.2869 47.9796 39.1279L51.7418 45.644C53.1471 45.029 54.6593 44.6144 56.2425 44.437V36.9137C56.2425 35.9427 57.0296 35.1559 58.0004 35.1559C58.9711 35.1559 59.7582 35.9427 59.7582 36.9137V44.4377C61.3121 44.613 62.8311 45.019 64.2603 45.6419L68.0212 39.1281C68.5066 38.2869 69.5814 37.9996 70.4224 38.4848C71.2631 38.9701 71.5511 40.0452 71.0657 40.8859L66.4832 48.8227C66.4705 48.8452 66.4574 48.8674 66.4436 48.8892C65.9357 49.7023 64.869 49.9592 64.0468 49.4653C64.0386 49.4604 64.0304 49.4552 64.0224 49.4503C62.1981 48.4064 60.1168 47.8547 58.0001 47.8547C51.3033 47.8547 45.8549 53.303 45.8549 59.9999C45.8549 66.697 51.3033 72.1453 58.0001 72.1453C64.697 72.1453 70.1453 66.697 70.1453 59.9999C70.1453 57.8842 69.5943 55.8043 68.5513 53.9801C68.5377 53.9586 68.5246 53.9365 68.5119 53.9143C68.0364 53.0743 68.3256 52.0086 69.1614 51.5262L77.1143 46.9345C77.955 46.4494 79.0301 46.7369 79.5155 47.5779C80.0009 48.4186 79.7128 49.4937 78.8721 49.9791L72.3583 53.7399C72.981 55.1694 73.387 56.6879 73.5621 58.2421H81.0861C82.0568 58.2421 82.8439 59.0289 82.8439 59.9999C82.8439 60.9709 82.0568 61.7577 81.0861 61.7577H73.5628C73.3851 63.3407 72.9707 64.8531 72.3555 66.2585L78.8719 70.0207C79.7126 70.5061 80.0007 71.5812 79.5153 72.4219C79.0299 73.2626 77.9548 73.5499 77.1141 73.0652L70.5928 69.3004C69.6646 70.5541 68.5537 71.6651 67.3002 72.5932L71.065 79.1143C71.5504 79.955 71.2624 81.0301 70.4217 81.5155C69.5809 82.0004 68.5059 81.7131 68.0205 80.8721L64.2582 74.3557C62.8527 74.971 61.3405 75.3856 59.7575 75.563V83.0861C59.758 84.0571 58.9709 84.8439 58.0001 84.8439ZM104.061 68.789C103.09 68.789 102.303 68.0022 102.303 67.0312C102.303 66.0602 103.09 65.2734 104.061 65.2734C105.031 65.2734 105.819 64.4849 105.819 63.5155C105.819 62.5462 105.031 61.7577 104.061 61.7577H97.5197C96.5489 61.7577 95.7618 60.9709 95.7618 59.9999C95.7618 59.0289 96.5489 58.2421 97.5197 58.2421H104.061C105.031 58.2421 105.819 57.4536 105.819 56.4842C105.819 55.5148 105.031 54.7264 104.061 54.7264C103.09 54.7264 102.303 53.9396 102.303 52.9686C102.303 51.9975 103.09 51.2107 104.061 51.2107C106.969 51.2107 109.335 53.5765 109.335 56.4842C109.335 57.8335 108.825 59.0664 107.989 59.9999C108.825 60.9334 109.335 62.1662 109.335 63.5155C109.335 66.4232 106.969 68.789 104.061 68.789ZM18.7424 68.789C17.7716 68.789 16.9846 68.0022 16.9846 67.0312V52.4862C16.9846 51.5152 17.7716 50.7284 18.7424 50.7284C19.7132 50.7284 20.5002 51.5152 20.5002 52.4862V67.0312C20.5002 68.0022 19.7132 68.789 18.7424 68.789ZM11.7111 68.789C10.7403 68.789 9.95324 68.0022 9.95324 67.0312V64.9722C7.90713 64.2466 6.43758 62.2916 6.43758 59.9999C6.43758 57.7081 7.90713 55.7532 9.95324 55.0276V52.9686C9.95324 51.9975 10.7403 51.2107 11.7111 51.2107C12.6819 51.2107 13.4689 51.9975 13.4689 52.9686V56.4842C13.4689 57.4552 12.6819 58.2421 11.7111 58.2421C10.7417 58.2421 9.95324 59.0305 9.95324 59.9999C9.95324 60.9693 10.7417 61.7577 11.7111 61.7577C12.6819 61.7577 13.4689 62.5445 13.4689 63.5155V67.0312C13.4689 68.0022 12.6819 68.789 11.7111 68.789ZM20.8141 48.4088C20.5159 48.4088 20.2136 48.3328 19.9368 48.173L11.419 43.2553C10.7656 42.8782 10.4257 42.126 10.5746 41.3861C10.629 41.1156 11.1331 38.6966 12.0587 37.0937C13.3573 34.8446 15.1728 34.5507 16.4687 34.6998C17.8822 34.8627 19.2939 35.623 20.6186 36.388L23.3974 37.9926C23.642 38.1337 23.8581 38.1787 24.0405 38.1269C24.2013 38.0809 24.3473 37.9555 24.4521 37.7739C24.7701 37.2226 24.6358 36.5973 24.0524 35.9148L18.5713 29.5004C17.9408 28.7623 18.0278 27.6528 18.7658 27.0221C19.5039 26.3916 20.6132 26.4785 21.2441 27.2166L26.7253 33.6308C28.2867 35.4582 28.575 37.664 27.4969 39.5315C26.9339 40.5067 26.05 41.2082 25.0082 41.5066C23.9067 41.8221 22.7104 41.6552 21.6398 41.0371L18.8608 39.4326C17.8288 38.8368 16.776 38.274 16.066 38.1922C15.7855 38.1597 15.5204 38.1292 15.1034 38.8516C14.7948 39.3864 14.5217 40.1849 14.3237 40.8728L21.6946 45.1284C22.5353 45.6138 22.8234 46.6889 22.338 47.5296C22.0124 48.0935 21.4216 48.4088 20.8141 48.4088ZM93.6243 47.6285C93.4483 47.6285 93.2692 47.602 93.0925 47.5458C92.1669 47.2521 91.6548 46.264 91.9483 45.3386C92.6057 43.2656 93.8908 41.4925 95.5371 40.1727L93.9395 37.4054C91.9734 38.1712 89.7953 38.3976 87.6711 37.9305C86.7231 37.7219 86.1233 36.7841 86.3319 35.8358C86.5405 34.888 87.4792 34.2894 88.4263 34.4966C89.683 34.7734 90.9681 34.6932 92.1618 34.326L91.2226 32.6994C90.7372 31.8587 91.0253 30.7836 91.866 30.2982C92.7065 29.813 93.7818 30.1008 94.2672 30.9416L95.2064 32.5681C96.1214 31.7178 96.8327 30.6451 97.2218 29.4186C97.5152 28.493 98.5031 27.9807 99.4289 28.2743C100.354 28.568 100.867 29.5561 100.573 30.4815C99.9155 32.5545 98.6304 34.3276 96.9841 35.6474L98.5816 38.4147C100.548 37.6485 102.726 37.4223 104.85 37.8894C105.798 38.098 106.398 39.0358 106.189 39.9841C105.981 40.9321 105.043 41.5319 104.095 41.3233C102.838 41.0465 101.553 41.1267 100.359 41.4939L101.299 43.1205C101.784 43.9612 101.496 45.0363 100.655 45.5217C99.8144 46.0066 98.7393 45.7193 98.254 44.8783L97.3148 43.252C96.3996 44.1021 95.6885 45.1748 95.2994 46.4015C95.062 47.1502 94.3699 47.6285 93.6243 47.6285ZM33.6856 31.8045C33.5349 31.8045 33.3818 31.7851 33.2295 31.7441C32.2917 31.4928 31.7353 30.5288 31.9864 29.5911L33.3612 24.4606L33.2145 24.4212C32.2767 24.1702 31.7203 23.2059 31.9713 22.2682C32.2226 21.3304 33.1868 20.7729 34.1243 21.0253L34.2713 21.0647L35.3401 17.0763L34.4689 17.5792C33.6282 18.0644 32.5531 17.7766 32.0677 16.9359C31.5823 16.0952 31.8703 15.0201 32.711 14.5347L37.2573 11.9099C38.0689 11.4214 39.1988 11.7236 39.6585 12.5532L42.2832 17.0995C42.7686 17.9402 42.4806 19.0153 41.6399 19.5007C40.7992 19.9856 39.7241 19.698 39.2387 18.8573L38.7357 17.9861L37.667 21.9745L37.8137 22.0139C38.7514 22.2649 39.3078 23.2291 39.0568 24.1669C38.8056 25.1046 37.8416 25.6624 36.9038 25.4098L36.7569 25.3704L35.3822 30.5012C35.172 31.2866 34.4616 31.8045 33.6856 31.8045ZM80.7903 29.3145C80.1253 29.3145 79.5127 28.9379 79.215 28.3357L77.8617 25.5987L74.8146 25.7951C74.1065 25.8422 73.4402 25.4562 73.1257 24.8201L71.253 21.0325C70.8227 20.1623 71.1794 19.1081 72.0496 18.6778C72.9201 18.2477 73.9743 18.6044 74.4044 19.4742L75.7577 22.2112L78.8049 22.0148C79.5141 21.9679 80.1792 22.354 80.4938 22.9898L81.8471 25.7269L84.8942 25.5305C85.8638 25.4663 86.6992 26.2027 86.7615 27.1716C86.8241 28.1405 86.0893 28.9763 85.1206 29.0389L80.9039 29.3108C80.8657 29.3133 80.828 29.3145 80.7903 29.3145ZM62.079 24.6096C61.0384 24.6096 60.0514 24.2766 59.225 23.6468C58.4529 23.058 58.3041 21.9551 58.8926 21.183C59.4812 20.4112 60.5844 20.2622 61.3564 20.8507C61.502 20.9618 61.7455 21.094 62.079 21.094C62.7376 21.094 63.2734 20.5582 63.2734 19.8993C63.2734 19.3 63.0716 17.8153 61.8097 14.4032H59.0813L56.0532 20.4004C55.7543 20.9925 55.1473 21.3658 54.484 21.3658C53.8207 21.3658 53.2139 20.9925 52.9148 20.4004L49.3992 13.4378C48.9616 12.5711 49.3094 11.5138 50.1759 11.0762C51.0426 10.6393 52.0997 10.9867 52.5373 11.8529L54.4838 15.708L56.4303 11.8529C56.7291 11.2609 57.3361 10.8875 57.9994 10.8875H62.1181L63.6015 8.8161C64.1666 8.02695 65.2646 7.84508 66.054 8.41039C66.8434 8.97548 67.0251 10.0738 66.4597 10.8629L65.001 12.9001C66.2029 16.1041 66.7883 18.3991 66.7883 19.8993C66.7893 22.4965 64.6761 24.6096 62.079 24.6096ZM84.3059 23.2254C83.6408 23.2254 83.0283 22.8487 82.7307 22.2466L81.3774 19.5096L78.3302 19.706C77.6222 19.7554 76.9559 19.3671 76.6413 18.731L74.7686 14.9434C74.3383 14.0732 74.6951 13.0187 75.5653 12.5886C76.4358 12.1583 77.4898 12.5153 77.9201 13.3851L79.2734 16.1221L82.3205 15.9257C83.0297 15.8812 83.6949 16.2646 84.0094 16.9007L85.3627 19.6378L88.4099 19.4414C89.3783 19.3771 90.2146 20.1136 90.2772 21.0825C90.3397 22.0512 89.605 22.8872 88.6363 22.9498L84.4196 23.2216C84.3814 23.2242 84.3437 23.2254 84.3059 23.2254Z" fill="#FF5C16"></path></g></g><defs><clipPath id="clip0_20_1011"><rect width="120" height="120" fill="white"></rect></clipPath></defs></svg>