<svg xmlns="http://www.w3.org/2000/svg" width="126" height="126" viewBox="0 0 126 126" fill="none"><g id="astrology_ucetki4fg2lb"><g id="_x31_3"><path id="Vector" d="M100.745 26.7819C100.739 26.7765 100.731 26.7749 100.726 26.7698C90.4206 16.4717 76.7243 10.7997 62.1563 10.7986C62.1549 10.7986 62.1538 10.7979 62.1525 10.7979C31.9372 10.7979 7.55859 35.3802 7.55859 65.3739C7.55859 95.4 32.0011 119.95 62.1525 119.95C76.7325 119.95 90.4307 114.262 100.745 103.966C111.041 93.6519 116.728 79.9539 116.728 65.3739C116.728 50.7939 111.041 37.0959 100.745 26.7819ZM95.7226 71.6019L83.7525 59.6319L87.4424 42.4599C93.1665 48.7419 96.2985 56.8058 96.2985 65.3739C96.2985 67.4798 96.1005 69.5679 95.7226 71.6019ZM94.2645 77.0019L79.3244 80.2058L83.3025 61.7379L95.2726 73.7079C94.9845 74.8239 94.6604 75.9218 94.2645 77.0019ZM75.7964 96.6759L78.9104 82.1499L93.4545 79.0179C90.1296 86.7052 83.761 93.2308 75.7964 96.6759ZM62.1525 99.5199C53.7672 99.5199 45.6131 96.5253 39.2205 90.6819L56.4104 86.9919L68.3807 98.9439C66.3464 99.3218 64.2586 99.5199 62.1525 99.5199ZM28.5645 59.1459L40.5345 71.116L36.8446 88.3058C31.1205 82.0059 27.9886 73.9419 27.9886 65.3739C27.9886 63.2679 28.1865 61.1798 28.5645 59.1459ZM30.0226 53.7459L44.9626 50.5239L40.9845 69.0099L29.0145 57.04C29.1965 56.3816 29.3697 55.5266 30.0226 53.7459ZM62.1525 31.2279C62.1541 31.2279 62.1549 31.2271 62.1565 31.2271C70.6961 31.2281 78.7353 34.3799 85.0219 40.0748L67.8766 43.7558L55.9063 31.8039C57.9406 31.4259 60.0284 31.2279 62.1525 31.2279ZM42.4964 70.5218L46.8885 50.1099L67.3005 45.7179L81.7906 60.2079L77.3985 80.6379L56.9865 85.0119L42.4964 70.5218ZM54.8985 85.4619L38.5365 88.9718L42.0464 72.6279L54.8985 85.4619ZM69.3886 45.2679L85.7505 41.7579L82.2406 58.1199L69.3886 45.2679ZM86.9225 39.3261C80.4274 33.1426 72.0149 29.6572 63.0525 29.4375V12.6055C76.5114 12.8297 89.1479 18.064 98.8247 27.4238L86.9225 39.3261ZM65.7886 44.2058L47.3025 48.1839L50.5244 33.2439C51.6045 32.8479 52.7025 32.5239 53.8185 32.2359L65.7886 44.2058ZM45.3766 48.5979L30.8325 51.7298C34.2644 43.7953 40.7284 37.4114 48.4906 34.0539L45.3766 48.5979ZM58.5165 86.5419L76.9845 82.5638L73.7626 97.4859C72.6825 97.8819 71.5847 98.2239 70.4685 98.4939L58.5165 86.5419ZM88.1985 40.6058C88.3805 40.4237 100.897 27.8982 100.101 28.6947C109.458 38.3783 114.695 51.0121 114.91 64.4739H98.0807C97.8645 55.5099 94.3726 47.0859 88.1985 40.6058ZM61.2523 12.5979V29.4459C52.3756 29.6506 43.9073 33.0986 37.3665 39.3279L25.4865 27.4298C34.7924 18.4479 47.3744 12.8319 61.2523 12.5979ZM24.2086 28.7079L36.1063 40.5879C30.1123 46.8818 26.4207 55.2676 26.2063 64.4739H9.37661C9.6104 50.5959 15.2266 38.0138 24.2086 28.7079ZM9.37661 66.2739H26.2063C26.4226 75.2379 29.9145 83.6619 36.1063 90.1419L24.2086 102.04C15.2266 92.7339 9.6104 80.1519 9.37661 66.2739ZM37.3665 91.4199C43.8645 97.6119 52.2886 101.086 61.2525 101.302V118.132C47.3744 117.898 34.7924 112.3 25.4865 103.3L37.3665 91.4199ZM63.0525 118.132V101.302C72.2912 101.088 80.6884 97.3552 86.9205 91.4199L98.8185 103.318C89.1525 112.678 76.5165 117.916 63.0525 118.132ZM100.096 102.04L88.1985 90.1419C94.2306 83.8082 97.8704 75.3756 98.0807 66.2739H114.91C114.695 79.7379 109.456 92.3739 100.096 102.04Z" fill="#FF5C16"></path><path id="Vector_2" d="M79.1439 30.2041C82.2395 30.2041 84.7584 27.6957 84.7584 24.6107C84.7584 21.5152 82.2395 18.998 79.1439 18.998C76.0484 18.998 73.5312 21.5152 73.5312 24.6107C73.5312 27.6957 76.0484 30.2041 79.1439 30.2041ZM79.1439 20.798C81.248 20.798 82.9584 22.5084 82.9584 24.6107C82.9584 26.7025 81.248 28.4041 79.1439 28.4041C77.0416 28.4041 75.3312 26.7025 75.3312 24.6107C75.3312 22.5084 77.0416 20.798 79.1439 20.798Z" fill="#FF5C16"></path><path id="Vector_3" d="M44.7572 101.011C41.6617 101.011 39.1445 103.53 39.1445 106.625C39.1445 109.708 41.6617 112.217 44.7572 112.217C47.8527 112.217 50.3717 109.708 50.3717 106.625C50.3717 103.53 47.8527 101.011 44.7572 101.011ZM44.7572 110.417C42.6549 110.417 40.9445 108.715 40.9445 106.625C40.9445 104.521 42.6549 102.811 44.7572 102.811C46.8613 102.811 48.5717 104.521 48.5717 106.625C48.5717 108.715 46.8613 110.417 44.7572 110.417Z" fill="#FF5C16"></path><path id="Vector_4" d="M107.068 52.7463C109.257 50.5596 109.259 46.9983 107.07 44.8081C104.88 42.6178 101.32 42.6143 99.1302 44.8081C96.9505 46.9877 96.9575 50.5438 99.146 52.7323C101.331 54.9176 104.885 54.9298 107.068 52.7463ZM100.403 46.0807C101.889 44.5945 104.307 44.5906 105.798 46.0807C107.283 47.5678 107.283 49.9883 105.796 51.4737C104.317 52.952 101.904 52.9467 100.419 51.4596C98.9315 49.9725 98.9245 47.559 100.403 46.0807Z" fill="#FF5C16"></path><path id="Vector_5" d="M24.7577 78.4822C22.5675 76.2954 19.0079 76.2972 16.8177 78.4822C14.638 80.6618 14.645 84.2179 16.8335 86.4064C19.018 88.5909 22.5725 88.6039 24.7577 86.4222C26.9444 84.2337 26.9444 80.6706 24.7577 78.4822ZM23.485 85.1495C22.0067 86.6243 19.595 86.6191 18.1061 85.1337C16.619 83.6466 16.612 81.2331 18.0903 79.7548C19.5751 78.2701 21.9979 78.2677 23.485 79.7548C24.9704 81.2419 24.9704 83.6624 23.485 85.1495Z" fill="#FF5C16"></path><path id="Vector_6" d="M102.947 88.4156C106.043 88.4156 108.562 85.8967 108.562 82.8012C108.562 79.7057 106.043 77.1885 102.947 77.1885C99.8639 77.1885 97.3555 79.7057 97.3555 82.8012C97.3555 85.8967 99.8639 88.4156 102.947 88.4156ZM102.947 78.9885C105.051 78.9885 106.762 80.6988 106.762 82.8012C106.762 84.9053 105.051 86.6156 102.947 86.6156C100.857 86.6156 99.1555 84.9053 99.1555 82.8012C99.1555 80.6988 100.857 78.9885 102.947 78.9885Z" fill="#FF5C16"></path><path id="Vector_7" d="M20.9354 42.7988C17.8521 42.7988 15.3438 45.316 15.3438 48.4115C15.3438 51.507 17.8521 54.026 20.9354 54.026C24.0309 54.026 26.548 51.507 26.548 48.4115C26.548 45.316 24.0309 42.7988 20.9354 42.7988ZM20.9354 52.226C18.8453 52.226 17.1437 50.5156 17.1437 48.4115C17.1437 46.3092 18.8453 44.5988 20.9354 44.5988C23.0377 44.5988 24.748 46.3092 24.748 48.4115C24.748 50.5156 23.0377 52.226 20.9354 52.226Z" fill="#FF5C16"></path><path id="Vector_8" d="M74.8287 102.8C72.6402 104.99 72.6349 108.544 74.8146 110.724C77.0004 112.91 80.5617 112.912 82.7529 110.724C84.9396 108.536 84.9396 104.973 82.7529 102.784C80.5732 100.604 77.0189 100.61 74.8287 102.8ZM81.4803 109.452C79.9914 110.939 77.5726 110.935 76.0873 109.452C72.4876 105.852 77.9867 100.563 81.4803 104.057C82.9656 105.544 82.9656 107.964 81.4803 109.452Z" fill="#FF5C16"></path><path id="Vector_9" d="M49.0763 20.4764C46.8953 18.2954 43.3434 18.299 41.1538 20.4905C38.9653 22.6789 38.9583 26.235 41.138 28.4147C43.5209 30.7938 47.0397 30.42 49.0844 28.4067C51.2348 26.2894 51.3073 22.7037 49.0763 20.4764ZM42.4265 21.7631C43.9184 20.2711 46.3278 20.2732 47.8036 21.7491C49.2923 23.2378 49.298 25.6476 47.8036 27.142C46.3182 28.6274 43.8995 28.6309 42.4106 27.142C40.9323 25.6637 40.9393 23.2502 42.4265 21.7631Z" fill="#FF5C16"></path><path id="Vector_10" d="M112.391 18.3268C115.38 18.3268 117.811 15.8948 117.811 12.9065C117.811 9.91826 115.38 7.48633 112.391 7.48633C109.429 7.48633 107.02 9.91826 107.02 12.9065C107.02 15.8948 109.429 18.3268 112.391 18.3268ZM112.391 9.28633C114.387 9.28633 116.011 10.9105 116.011 12.9065C116.011 14.9025 114.387 16.5268 112.391 16.5268C110.423 16.5268 108.82 14.9025 108.82 12.9065C108.82 10.9105 110.423 9.28633 112.391 9.28633Z" fill="#FF5C16"></path><path id="Vector_11" d="M87.9508 10.8284H90.0285V12.907C90.0285 13.4045 90.4311 13.807 90.9285 13.807C91.426 13.807 91.8285 13.4045 91.8285 12.907V10.8284H93.908C94.4055 10.8284 94.808 10.4259 94.808 9.92842C94.808 9.43096 94.4055 9.02842 93.908 9.02842H91.8285V6.9498C91.8285 6.45234 91.426 6.0498 90.9285 6.0498C90.4311 6.0498 90.0285 6.45234 90.0285 6.9498V9.02842H87.9508C87.4533 9.02842 87.0508 9.43096 87.0508 9.92842C87.0508 10.4259 87.4533 10.8284 87.9508 10.8284Z" fill="#FF5C16"></path><path id="Vector_12" d="M9.30361 11.2011L10.774 12.6709C11.1256 13.0225 11.6951 13.0225 12.0467 12.6709C12.3982 12.3193 12.3982 11.7498 12.0467 11.3982L10.5765 9.92871L12.0467 8.45918C12.3982 8.10762 12.3982 7.53809 12.0467 7.18652C11.6951 6.83496 11.1256 6.83496 10.774 7.18652L9.30361 8.65627L7.8332 7.18652C7.48164 6.83496 6.91211 6.83496 6.56055 7.18652C6.20898 7.53809 6.20898 8.10762 6.56055 8.45918L8.03074 9.92871L6.56055 11.3982C6.20898 11.7498 6.20898 12.3193 6.56055 12.6709C6.9121 13.0225 7.48163 13.0225 7.8332 12.6709L9.30361 11.2011Z" fill="#FF5C16"></path><path id="Vector_13" d="M22.525 14.8362H24.6027V16.9148C24.6027 17.4123 25.0053 17.8148 25.5027 17.8148C26.0002 17.8148 26.4027 17.4123 26.4027 16.9148V14.8362H28.4822C28.9797 14.8362 29.3822 14.4337 29.3822 13.9362C29.3822 13.4388 28.9797 13.0362 28.4822 13.0362H26.4027V10.9576C26.4027 10.4602 26.0002 10.0576 25.5027 10.0576C25.0053 10.0576 24.6027 10.4602 24.6027 10.9576V13.0362H22.525C22.0275 13.0362 21.625 13.4388 21.625 13.9362C21.625 14.4337 22.0275 14.8362 22.525 14.8362Z" fill="#FF5C16"></path><path id="Vector_14" d="M13.3209 111.837L11.8505 113.307L10.3801 111.837C10.0285 111.485 9.45898 111.485 9.10742 111.837C8.75586 112.188 8.75586 112.758 9.10742 113.11L10.5778 114.58L9.10742 116.05C8.75586 116.402 8.75586 116.971 9.10742 117.323C9.45898 117.675 10.0285 117.675 10.3801 117.323L11.8505 115.853L13.3209 117.323C13.6725 117.675 14.242 117.675 14.5936 117.323C14.9451 116.971 14.9451 116.402 14.5936 116.05L13.1231 114.58L14.5936 113.11C15.4359 112.267 14.1627 110.995 13.3209 111.837Z" fill="#FF5C16"></path><path id="Vector_15" d="M118.803 94.9357H116.725V92.858C116.725 92.3605 116.322 91.958 115.825 91.958C115.327 91.958 114.925 92.3605 114.925 92.858V94.9357H112.845C112.348 94.9357 111.945 95.3383 111.945 95.8357C111.945 96.3332 112.348 96.7357 112.845 96.7357H114.925V98.8152C114.925 99.3127 115.327 99.7152 115.825 99.7152C116.322 99.7152 116.725 99.3127 116.725 98.8152V96.7357H118.803C119.3 96.7357 119.703 96.3332 119.703 95.8357C119.703 95.3383 119.3 94.9357 118.803 94.9357Z" fill="#FF5C16"></path><path id="Vector_16" d="M112.391 109.105C109.429 109.105 107.02 111.537 107.02 114.525C107.02 117.513 109.429 119.944 112.391 119.944C115.38 119.944 117.811 117.513 117.811 114.525C117.811 111.537 115.38 109.105 112.391 109.105ZM112.391 118.144C110.423 118.144 108.82 116.52 108.82 114.525C108.82 112.53 110.423 110.905 112.391 110.905C114.387 110.905 116.011 112.53 116.011 114.525C116.011 116.52 114.387 118.144 112.391 118.144Z" fill="#FF5C16"></path></g></g></svg>